<svg xmlns="http://www.w3.org/2000/svg" xmlns:svg="http://www.w3.org/2000/svg" id="svg22" width="54" height="54" version="1.1"><metadata id="metadata28"/><g id="g20" transform="translate(9.1952125,7.1745559)"><path id="path2" d="M 23.15,11.35 Q 23.9,6.1 22.15,0 q 7.7,7.85 7.7,15.25 0.15,7.25 3.7,-3.25 2.15,4.6 2.05,10.1 -0.65,5.5 -1.5,7.1 -1.9,3.65 -4.5,6.25 -3.55,3.45 -8.85,4.15 9.85,-6.3 11.5,-15.85 -4.75,5.65 -10.85,5.8 8.45,-5.25 4.85,-14.2 -2.6,6.85 -8.55,8.2 L 12.45,14.9 Q 7.95,19.25 8.7,23.45 5.9,23.05 4.6,16.55 3.8,17 2.75,18.95 1.7,20.8 3.8,26.3 5.6,31.4 10.35,38.15 4.25,35.75 1.3,28.75 L 0.45,26.7 0,21.35 q 0.7,-9.6 5.45,-10.9 L 6.2,14.6 8.2,17 9.5,7.75 Q 9.95,5.2 12.2,5.2 q -0.6,5 4.9,12.1 2.65,0.4 4.5,-1.8 1.15,-1.65 1.55,-4.15" style="fill:#d31127;fill-rule:evenodd;stroke:none"/><path id="path4" d="M 3.8,26.3 Q 1.7,20.8 2.75,18.95 3.8,17 4.6,16.55 q 1.3,6.5 4.1,6.9 -0.75,-4.2 3.75,-8.55 l 5.25,8.65 q 5.95,-1.35 8.55,-8.2 3.6,8.95 -4.85,14.2 6.05,-0.15 10.85,-5.8 Q 30.6,33.3 20.75,39.6 H 18.3 l 7.2,-7.9 q -3.75,2.05 -6.75,2.55 L 12.9,20.3 13.75,33.7 Q 7.5,27.7 5.1,21.05 q 1.7,8.1 7.25,17.65 l -2,-0.55 Q 5.6,31.4 3.8,26.3" style="fill:#e48129;fill-rule:evenodd;stroke:none"/><path id="path6" d="M 12.35,38.7 Q 6.8,29.15 5.1,21.05 7.5,27.7 13.75,33.7 L 12.9,20.3 18.75,34.25 q 3,-0.5 6.75,-2.55 l -7.2,7.9 -5.95,-0.9" style="fill:#eae513;fill-rule:evenodd;stroke:none"/><path id="path8" d="m 22.1,0.3 q 7.55,7.7 7.55,15 0.15,7.3 3.65,-3.15 2.15,4.7 2,9.9 -0.55,5.3 -1.45,7 -1.9,3.55 -4.45,6.2 -3.6,3.45 -8.7,4.1 h -2.45 l -5.8,-0.9 -2,-0.55 Q 4.4,35.45 1.55,28.6 L 0.75,26.6 0.3,21.3 Q 1,11.9 5.65,10.6 l 0.7,4.1 2,2.35 1.3,-9.1 Q 10,5.4 12.3,5.4 q -0.6,5 4.8,11.9 2.55,0.45 4.45,-1.7 1.05,-1.7 1.55,-4.1 0.7,-5.15 -1,-11.2" style="fill:#fff;fill-rule:evenodd;stroke:none"/><path id="path10" d="m 22.1,0.3 q 7.55,7.7 7.55,15 0.15,7.3 3.65,-3.15 2.15,4.7 2,9.9 -0.55,5.3 -1.45,7 -1.9,3.55 -4.45,6.2 -3.6,3.45 -8.7,4.1 h -2.45 l -5.8,-0.9 -2,-0.55 Q 4.4,35.45 1.55,28.6 L 0.75,26.6 0.3,21.3 Q 1,11.9 5.65,10.6 l 0.7,4.1 2,2.35 1.3,-9.1 Q 10,5.4 12.3,5.4 q -0.6,5 4.8,11.9 2.55,0.45 4.45,-1.7 1.05,-1.7 1.55,-4.1 0.7,-5.15 -1,-11.2 z" style="fill:none;stroke:#fff;stroke-width:7.1500001;stroke-linecap:round;stroke-linejoin:round"/><path id="path12" d="M 23.15,11.35 Q 23.9,6.1 22.15,0 q 7.7,7.85 7.7,15.25 0.15,7.25 3.7,-3.25 2.15,4.6 2.05,10.1 -0.65,5.5 -1.5,7.1 -1.9,3.65 -4.5,6.25 -3.55,3.45 -8.85,4.15 9.85,-6.3 11.5,-15.85 -4.75,5.65 -10.85,5.8 8.45,-5.25 4.85,-14.2 -2.6,6.85 -8.55,8.2 L 12.45,14.9 Q 7.95,19.25 8.7,23.45 5.9,23.05 4.6,16.55 3.8,17 2.75,18.95 1.7,20.8 3.8,26.3 5.6,31.4 10.35,38.15 4.25,35.75 1.3,28.75 L 0.45,26.7 0,21.35 q 0.7,-9.6 5.45,-10.9 L 6.2,14.6 8.2,17 9.5,7.75 Q 9.95,5.2 12.2,5.2 q -0.6,5 4.9,12.1 2.65,0.4 4.5,-1.8 1.15,-1.65 1.55,-4.15" style="fill:#d31127;fill-rule:evenodd;stroke:none"/><path id="path14" d="M 3.8,26.3 Q 1.7,20.8 2.75,18.95 3.8,17 4.6,16.55 q 1.3,6.5 4.1,6.9 -0.75,-4.2 3.75,-8.55 l 5.25,8.65 q 5.95,-1.35 8.55,-8.2 3.6,8.95 -4.85,14.2 6.05,-0.15 10.85,-5.8 Q 30.6,33.3 20.75,39.6 H 18.3 l 7.2,-7.9 q -3.75,2.05 -6.75,2.55 L 12.9,20.3 13.75,33.7 Q 7.5,27.7 5.1,21.05 q 1.7,8.1 7.25,17.65 l -2,-0.55 Q 5.6,31.4 3.8,26.3" style="fill:#e48129;fill-rule:evenodd;stroke:none"/><path id="path16" d="M 12.35,38.7 Q 6.8,29.15 5.1,21.05 7.5,27.7 13.75,33.7 L 12.9,20.3 18.75,34.25 q 3,-0.5 6.75,-2.55 l -7.2,7.9 -5.95,-0.9" style="fill:#eae513;fill-rule:evenodd;stroke:none"/><path id="path18" d="m 12.3,5.4 q -0.6,5 4.8,11.9 2.55,0.45 4.45,-1.7 1.05,-1.7 1.55,-4.1 0.7,-5.15 -1,-11.2 7.55,7.7 7.55,15 0.15,7.3 3.65,-3.15 2.15,4.7 2,9.9 -0.55,5.3 -1.45,7 -1.9,3.55 -4.45,6.2 -3.6,3.45 -8.7,4.1 h -2.45 l -5.8,-0.9 -2,-0.55 Q 4.4,35.45 1.55,28.6 L 0.75,26.6 0.3,21.3 Q 1,11.9 5.65,10.6 l 0.7,4.1 2,2.35 1.3,-9.1 Q 10,5.4 12.3,5.4 Z" style="fill:none;stroke:#4e0f14;stroke-width:1.45000005;stroke-linecap:round;stroke-linejoin:round"/></g></svg>