<svg xmlns="http://www.w3.org/2000/svg" xmlns:svg="http://www.w3.org/2000/svg" id="svg14" width="54" height="54" version="1.1"><metadata id="metadata20"/><g id="g12" transform="translate(7,4.325)"><path id="path2" d="m 32.75,3.65 q 0.9,0.6 1.1,1.65 0.2,1.1 -0.35,1.95 L 33.25,7.6 q 0.85,0.1 1.5,0.6 0.7,0.55 0.9,1.4 0.25,1.05 -0.3,1.95 -0.55,0.9 -1.6,1.2 L 30.7,13.5 q 0.85,0.6 1.05,1.55 0.2,0.6 0,1.2 0.85,0.2 1.4,0.85 0.7,0.8 0.6,1.9 l 2.75,-2.35 q 0.85,-0.7 1.9,-0.6 1.05,0.1 1.75,0.95 0.5,0.55 0.6,1.3 0.1,0.7 -0.2,1.4 h 0.6 q 1.05,0 1.8,0.75 0.75,0.75 0.75,1.85 0,1.05 -0.75,1.8 -0.75,0.75 -1.8,0.75 h -1.2 q 0.4,0.75 0.3,1.6 l -0.75,1.4 q -0.75,0.8 -1.85,0.8 -1.05,0 -1.8,-0.8 l -2.55,-2.5 q 0.35,1.3 -0.55,2.4 -0.65,0.75 -1.65,0.85 0.2,0.55 0.05,1.2 -0.3,1.35 -1.5,1.85 l 2.8,0.65 q 1.05,0.3 1.6,1.2 0.6,0.9 0.3,1.95 -0.2,0.95 -1,1.5 -0.75,0.55 -1.7,0.45 l 0.25,0.4 q 0.55,0.95 0.25,2 -0.3,1.05 -1.2,1.55 -0.95,0.55 -2,0.3 -1,-0.3 -1.55,-1.2 l -0.35,-0.6 q -0.4,0.85 -1.3,1.25 l -1.8,0.1 q -1.05,-0.35 -1.5,-1.25 -0.5,-1 -0.2,-2.05 l 1,-2.95 q -1.15,1 -2.6,0.55 L 19.6,34.8 q -0.55,0.75 -1.45,1 l -1.5,-0.05 -1.2,-0.85 0.7,3.3 q 0.2,1.05 -0.35,1.95 -0.6,0.9 -1.65,1.1 L 12.55,41.1 Q 11.8,40.75 11.35,40.05 L 10.7,41 Q 9.9,42.1 8.55,42.1 L 7.1,41.65 Q 6.25,41 6.05,39.95 5.85,38.9 6.45,38.05 L 6.6,37.8 Q 5.85,37.7 5.2,37.2 4.6,36.65 4.4,35.85 4.15,34.8 4.7,33.9 5.25,33 6.25,32.7 L 9.4,31.9 Q 8.4,31.35 8.15,30.25 8,29.65 8.15,29.05 7.4,28.8 6.95,28.3 6,27.25 6.35,25.95 l -2.9,2.55 q -0.8,0.7 -1.85,0.65 -1.1,-0.1 -1.8,-0.9 l -0.6,-1.3 Q -0.9,26.2 -0.6,25.5 h -0.45 q -1.05,0.05 -1.85,-0.7 -0.75,-0.75 -0.8,-1.85 0,-1.05 0.75,-1.85 0.75,-0.75 1.8,-0.75 L -0.2,20.3 Q -0.55,19.6 -0.4,18.8 -0.3,18 0.25,17.4 1,16.6 2.05,16.55 3.1,16.55 3.9,17.3 L 6.75,20 q -0.5,-1.5 0.6,-2.6 0.6,-0.65 1.4,-0.8 V 15.55 Q 9,14.3 10.15,13.7 L 7.4,13 Q 6.35,12.75 5.85,11.8 5.3,10.85 5.55,9.85 5.8,8.95 6.55,8.4 7.25,7.85 8.15,7.9 L 7.9,7.5 Q 7.35,6.6 7.65,5.55 7.9,4.55 8.85,4 q 0.9,-0.55 1.9,-0.3 1.1,0.25 1.6,1.2 l 0.5,0.8 q 0.4,-0.85 1.3,-1.2 L 16,4.4 q 1,0.35 1.45,1.3 0.5,0.95 0.2,2 l -0.95,2.8 q 0.5,-0.55 1.25,-0.7 l 1.4,0.05 q 0.7,0.2 1.2,0.8 Q 21.1,10 21.95,9.8 l 1.4,0.05 q 0.7,0.2 1.15,0.8 L 23.65,7.4 q -0.25,-1.05 0.3,-2 0.5,-0.9 1.55,-1.2 l 1.7,0.15 q 0.85,0.35 1.25,1.15 l 0.7,-1.1 q 0.6,-0.9 1.7,-1.1 1,-0.2 1.9,0.35 m -7.8,16.35 1,-0.05 1.2,-1.05 -1.8,0.45 -0.4,0.65 m -4.5,-5.35 -0.8,2.35 0.5,0.85 0.8,-1.25 -0.5,-1.95 m 4,10.5 0.4,0.65 2.45,0.55 -1.35,-1.2 h -1.5 m -4.6,2.4 -0.85,1.3 0.55,1.95 0.8,-2.45 -0.5,-0.8 M 15.15,19.5 12.8,19 14,20.2 15.5,20.15 15.15,19.5 m -1.15,5.85 -1.25,1.15 1.9,-0.45 0.5,-0.7 H 14" style="fill:#631419;fill-rule:evenodd;stroke:none"/><path id="path4" d="m 38.6,19.15 -2.95,2.45 h 5.5 l 0.45,0.2 0.2,0.5 -0.2,0.4 -0.45,0.2 h -5.7 l 2.7,2.65 q 0.4,0.5 0,0.95 l -0.5,0.15 -0.45,-0.15 -3.55,-3.6 -5.1,0.2 2.7,2.45 0.2,0.45 -0.15,0.45 -0.45,0.25 q -0.3,0 -0.5,-0.2 l -3.65,-3.3 -5.55,0.1 2.45,4.25 5.15,1.1 0.4,0.3 0.1,0.45 Q 29.1,30 28.45,29.9 L 24.5,29.05 26.85,33 32,34.2 l 0.4,0.3 0.05,0.5 -0.25,0.4 -0.5,0.1 -3.95,-1 2.45,4.3 0.05,0.5 -0.3,0.4 -0.45,0.05 -0.4,-0.3 -2.5,-4.35 -1.25,3.85 -0.3,0.35 -0.5,0.05 -0.4,-0.3 v -0.5 l 1.55,-4.95 -2.35,-3.95 -1.2,3.6 Q 21.9,33.8 21.3,33.65 L 20.95,33.3 Q 20.8,33.05 20.9,32.8 L 22.45,28.15 20,23.9 l -3.1,4.6 1.25,4.6 -0.1,0.5 -0.4,0.3 -0.5,-0.05 -0.3,-0.4 -0.9,-3.55 -2.7,4.05 1,4.65 -0.1,0.5 -0.4,0.25 -0.5,-0.1 -0.25,-0.4 -0.75,-3.45 -3.15,4.45 -0.55,0.3 -0.35,-0.1 -0.25,-0.4 0.1,-0.5 3,-4.3 -4,1 -0.5,-0.05 -0.3,-0.4 0.1,-0.5 q 0.15,-0.25 0.4,-0.3 l 5.45,-1.35 2.55,-3.9 -3.95,0.95 -0.5,-0.1 -0.25,-0.4 q -0.1,-0.25 0.05,-0.45 l 0.4,-0.3 5.3,-1.25 3,-4.5 -5.55,0.1 -4,3.65 L 8.8,27.2 8.35,27 8.2,26.55 8.4,26.05 11.3,23.4 H 6.25 L 2.2,27.05 1.7,27.2 1.25,26.95 1.1,26.5 1.3,26.05 4.25,23.45 -1.1,23.55 -1.55,23.4 -1.75,22.9 -1.6,22.5 -1.1,22.3 4.4,22.2 1.7,19.65 Q 1.25,19.15 1.65,18.7 2.1,18.25 2.6,18.7 l 3.65,3.45 h 5.1 l -2.6,-2.5 q -0.4,-0.45 0,-0.95 l 0.5,-0.2 0.4,0.2 3.6,3.45 5.5,-0.15 -2.3,-4.2 -5.3,-1.15 -0.4,-0.25 -0.1,-0.45 0.3,-0.45 0.5,-0.05 4.05,0.8 -2.4,-3.8 L 7.9,11.1 7.5,10.85 7.45,10.35 Q 7.6,9.7 8.25,9.85 l 3.9,1.05 -2.6,-4.35 Q 9.3,6 9.8,5.65 l 0.5,-0.05 0.4,0.3 2.65,4.45 1.2,-3.7 0.3,-0.35 0.5,-0.05 0.4,0.3 0.05,0.5 -1.6,4.8 2.45,3.9 1.3,-3.65 0.3,-0.35 0.5,-0.05 0.35,0.3 0.05,0.5 -1.6,4.7 L 20,21.65 23,17 21.95,12.45 q -0.2,-0.6 0.45,-0.8 l 0.5,0.1 0.25,0.4 0.85,3.4 2.75,-4 -1.2,-4.65 0.05,-0.5 0.4,-0.3 0.5,0.1 0.3,0.35 0.9,3.55 3.1,-4.65 Q 30.95,5.2 31.2,5.2 l 0.5,0.1 0.25,0.4 -0.1,0.5 -2.9,4.45 4,-1.05 q 0.65,-0.1 0.8,0.45 0.2,0.6 -0.45,0.8 l -5.45,1.4 -2.6,3.8 3.85,-1 0.5,0.05 0.3,0.4 -0.05,0.5 -0.4,0.3 -5.35,1.35 -2.75,4.35 5.35,-0.1 4.05,-3.6 0.5,-0.2 q 0.3,0.05 0.45,0.25 l 0.15,0.45 -0.2,0.45 -2.9,2.55 4.9,-0.15 4.1,-3.5 Q 37.95,18 38.25,18 l 0.4,0.2 q 0.4,0.55 -0.05,0.95" style="fill:#fff;fill-rule:evenodd;stroke:none"/><path id="path6" d="m 21,2.95 0.15,0.65 q 1.25,-1.95 3.5,-2.55 l 1.5,-0.2 1.7,0.2 q 1.6,-1.1 3.5,-1.1 1.8,0 3.25,0.95 1.25,0.85 1.95,2.2 0.65,1.3 0.65,2.7 V 6 q 1.25,1.2 1.65,2.8 l 0.2,1.45 Q 39,11.5 38.55,12.6 l 1.05,-0.3 -0.55,0.55 q 2.2,0.3 3.6,2 0.8,0.9 1.15,2.2 1.5,0.75 2.3,2.15 0.9,1.4 0.9,3.1 0,1.85 -1.05,3.35 -1.05,1.45 -2.7,2.1 -0.45,1.45 -1.45,2.4 -1.4,1.55 -3.45,1.75 l 0.3,0.3 -1.15,-0.3 h -0.55 q 0.8,1.4 0.8,2.9 l -0.2,1.4 q -0.5,2.05 -2.05,3.25 -0.05,1.45 -0.85,2.7 -0.75,1.3 -2.05,2.05 -1.4,0.8 -2.95,0.8 -1.5,0 -2.9,-0.75 l -2,0.35 -1.8,-0.25 q -2.45,-0.8 -3.5,-3.1 l -0.3,0.95 -0.25,-0.85 q -0.6,1.2 -1.65,2 -1.05,0.85 -2.4,1.1 L 13.6,44.6 11.9,44.35 Q 10.4,45.4 8.6,45.4 H 8.55 q -1.8,0 -3.35,-1.05 L 5.75,43.55 5.2,44.3 Q 4,43.45 3.35,42.15 2.7,40.9 2.7,39.5 V 39.35 Q 1.6,38.2 1.2,36.65 1.05,36.1 1.05,35.2 1.05,33.75 1.7,32.5 L 1.1,32.6 1.35,32.4 Q -1.1,32.25 -2.7,30.45 -3.55,29.45 -3.9,28.05 -5.3,27.35 -6.1,26 -6.9,24.65 -7,23 v -0.1 q 0,-1.75 1,-3.2 0.9,-1.45 2.5,-2.15 0.35,-1.35 1.3,-2.4 1.8,-1.9 4.35,-1.9 l 0.75,0.1 Q 2.2,12.05 2.2,10.5 L 2.4,9 Q 2.9,7.2 4.3,6 4.35,4.5 5.05,3.25 q 0.8,-1.3 2.1,-2.1 1.35,-0.85 3,-0.85 1.7,0 3.2,0.95 l 1.8,-0.3 1.9,0.3 q 2.4,0.8 3.45,3.15 L 21,2.95" style="fill:#fff;fill-rule:evenodd;stroke:none"/><path id="path8" d="m 32.75,3.65 q 0.9,0.6 1.1,1.65 0.2,1.1 -0.35,1.95 L 33.25,7.6 q 0.85,0.1 1.5,0.6 0.7,0.55 0.9,1.4 0.25,1.05 -0.3,1.95 -0.55,0.9 -1.6,1.2 L 30.7,13.5 q 0.85,0.6 1.05,1.55 0.2,0.6 0,1.2 0.85,0.2 1.4,0.85 0.7,0.8 0.6,1.9 l 2.75,-2.35 q 0.85,-0.7 1.9,-0.6 1.05,0.1 1.75,0.95 0.5,0.55 0.6,1.3 0.1,0.7 -0.2,1.4 h 0.6 q 1.05,0 1.8,0.75 0.75,0.75 0.75,1.85 0,1.05 -0.75,1.8 -0.75,0.75 -1.8,0.75 h -1.2 q 0.4,0.75 0.3,1.6 l -0.75,1.4 q -0.75,0.8 -1.85,0.8 -1.05,0 -1.8,-0.8 l -2.55,-2.5 q 0.35,1.3 -0.55,2.4 -0.65,0.75 -1.65,0.85 0.2,0.55 0.05,1.2 -0.3,1.35 -1.5,1.85 l 2.8,0.65 q 1.05,0.3 1.6,1.2 0.6,0.9 0.3,1.95 -0.2,0.95 -1,1.5 -0.75,0.55 -1.7,0.45 l 0.25,0.4 q 0.55,0.95 0.25,2 -0.3,1.05 -1.2,1.55 -0.95,0.55 -2,0.3 -1,-0.3 -1.55,-1.2 l -0.35,-0.6 q -0.4,0.85 -1.3,1.25 l -1.8,0.1 q -1.05,-0.35 -1.5,-1.25 -0.5,-1 -0.2,-2.05 l 1,-2.95 q -1.15,1 -2.6,0.55 L 19.6,34.8 q -0.55,0.75 -1.45,1 l -1.5,-0.05 -1.2,-0.85 0.7,3.3 q 0.2,1.05 -0.35,1.95 -0.6,0.9 -1.65,1.1 L 12.55,41.1 Q 11.8,40.75 11.35,40.05 L 10.7,41 Q 9.9,42.1 8.55,42.1 L 7.1,41.65 Q 6.25,41 6.05,39.95 5.85,38.9 6.45,38.05 L 6.6,37.8 Q 5.85,37.7 5.2,37.2 4.6,36.65 4.4,35.85 4.15,34.8 4.7,33.9 5.25,33 6.25,32.7 L 9.4,31.9 Q 8.4,31.35 8.15,30.25 8,29.65 8.15,29.05 7.4,28.8 6.95,28.3 6,27.25 6.35,25.95 l -2.9,2.55 q -0.8,0.7 -1.85,0.65 -1.1,-0.1 -1.8,-0.9 l -0.6,-1.3 Q -0.9,26.2 -0.6,25.5 h -0.45 q -1.05,0.05 -1.85,-0.7 -0.75,-0.75 -0.8,-1.85 0,-1.05 0.75,-1.85 0.75,-0.75 1.8,-0.75 L -0.2,20.3 Q -0.55,19.6 -0.4,18.8 -0.3,18 0.25,17.4 1,16.6 2.05,16.55 3.1,16.55 3.9,17.3 L 6.75,20 q -0.5,-1.5 0.6,-2.6 0.6,-0.65 1.4,-0.8 V 15.55 Q 9,14.3 10.15,13.7 L 7.4,13 Q 6.35,12.75 5.85,11.8 5.3,10.85 5.55,9.85 5.8,8.95 6.55,8.4 7.25,7.85 8.15,7.9 L 7.9,7.5 Q 7.35,6.6 7.65,5.55 7.9,4.55 8.85,4 q 0.9,-0.55 1.9,-0.3 1.1,0.25 1.6,1.2 l 0.5,0.8 q 0.4,-0.85 1.3,-1.2 L 16,4.4 q 1,0.35 1.45,1.3 0.5,0.95 0.2,2 l -0.95,2.8 q 0.5,-0.55 1.25,-0.7 l 1.4,0.05 q 0.7,0.2 1.2,0.8 Q 21.1,10 21.95,9.8 l 1.4,0.05 q 0.7,0.2 1.15,0.8 L 23.65,7.4 q -0.25,-1.05 0.3,-2 0.5,-0.9 1.55,-1.2 l 1.7,0.15 q 0.85,0.35 1.25,1.15 l 0.7,-1.1 q 0.6,-0.9 1.7,-1.1 1,-0.2 1.9,0.35 m -7.8,16.35 1,-0.05 1.2,-1.05 -1.8,0.45 -0.4,0.65 m -4.5,-5.35 -0.8,2.35 0.5,0.85 0.8,-1.25 -0.5,-1.95 m 4,10.5 0.4,0.65 2.45,0.55 -1.35,-1.2 h -1.5 m -4.6,2.4 -0.85,1.3 0.55,1.95 0.8,-2.45 -0.5,-0.8 M 15.15,19.5 12.8,19 14,20.2 15.5,20.15 15.15,19.5 m -1.15,5.85 -1.25,1.15 1.9,-0.45 0.5,-0.7 H 14" style="fill:#424243;fill-rule:evenodd;stroke:none"/><path id="path10" d="m 38.6,19.15 -2.95,2.45 h 5.5 l 0.45,0.2 0.2,0.5 -0.2,0.4 -0.45,0.2 h -5.7 l 2.7,2.65 q 0.4,0.5 0,0.95 l -0.5,0.15 -0.45,-0.15 -3.55,-3.6 -5.1,0.2 2.7,2.45 0.2,0.45 -0.15,0.45 -0.45,0.25 q -0.3,0 -0.5,-0.2 l -3.65,-3.3 -5.55,0.1 2.45,4.25 5.15,1.1 0.4,0.3 0.1,0.45 Q 29.1,30 28.45,29.9 L 24.5,29.05 26.85,33 32,34.2 l 0.4,0.3 0.05,0.5 -0.25,0.4 -0.5,0.1 -3.95,-1 2.45,4.3 0.05,0.5 -0.3,0.4 -0.45,0.05 -0.4,-0.3 -2.5,-4.35 -1.25,3.85 -0.3,0.35 -0.5,0.05 -0.4,-0.3 v -0.5 l 1.55,-4.95 -2.35,-3.95 -1.2,3.6 Q 21.9,33.8 21.3,33.65 L 20.95,33.3 Q 20.8,33.05 20.9,32.8 L 22.45,28.15 20,23.9 l -3.1,4.6 1.25,4.6 -0.1,0.5 -0.4,0.3 -0.5,-0.05 -0.3,-0.4 -0.9,-3.55 -2.7,4.05 1,4.65 -0.1,0.5 -0.4,0.25 -0.5,-0.1 -0.25,-0.4 -0.75,-3.45 -3.15,4.45 -0.55,0.3 -0.35,-0.1 -0.25,-0.4 0.1,-0.5 3,-4.3 -4,1 -0.5,-0.05 -0.3,-0.4 0.1,-0.5 q 0.15,-0.25 0.4,-0.3 l 5.45,-1.35 2.55,-3.9 -3.95,0.95 -0.5,-0.1 -0.25,-0.4 q -0.1,-0.25 0.05,-0.45 l 0.4,-0.3 5.3,-1.25 3,-4.5 -5.55,0.1 -4,3.65 L 8.8,27.2 8.35,27 8.2,26.55 8.4,26.05 11.3,23.4 H 6.25 L 2.2,27.05 1.7,27.2 1.25,26.95 1.1,26.5 1.3,26.05 4.25,23.45 -1.1,23.55 -1.55,23.4 -1.75,22.9 -1.6,22.5 -1.1,22.3 4.4,22.2 1.7,19.65 Q 1.25,19.15 1.65,18.7 2.1,18.25 2.6,18.7 l 3.65,3.45 h 5.1 l -2.6,-2.5 q -0.4,-0.45 0,-0.95 l 0.5,-0.2 0.4,0.2 3.6,3.45 5.5,-0.15 -2.3,-4.2 -5.3,-1.15 -0.4,-0.25 -0.1,-0.45 0.3,-0.45 0.5,-0.05 4.05,0.8 -2.4,-3.8 L 7.9,11.1 7.5,10.85 7.45,10.35 Q 7.6,9.7 8.25,9.85 l 3.9,1.05 -2.6,-4.35 Q 9.3,6 9.8,5.65 l 0.5,-0.05 0.4,0.3 2.65,4.45 1.2,-3.7 0.3,-0.35 0.5,-0.05 0.4,0.3 0.05,0.5 -1.6,4.8 2.45,3.9 1.3,-3.65 0.3,-0.35 0.5,-0.05 0.35,0.3 0.05,0.5 -1.6,4.7 L 20,21.65 23,17 21.95,12.45 q -0.2,-0.6 0.45,-0.8 l 0.5,0.1 0.25,0.4 0.85,3.4 2.75,-4 -1.2,-4.65 0.05,-0.5 0.4,-0.3 0.5,0.1 0.3,0.35 0.9,3.55 3.1,-4.65 Q 30.95,5.2 31.2,5.2 l 0.5,0.1 0.25,0.4 -0.1,0.5 -2.9,4.45 4,-1.05 q 0.65,-0.1 0.8,0.45 0.2,0.6 -0.45,0.8 l -5.45,1.4 -2.6,3.8 3.85,-1 0.5,0.05 0.3,0.4 -0.05,0.5 -0.4,0.3 -5.35,1.35 -2.75,4.35 5.35,-0.1 4.05,-3.6 0.5,-0.2 q 0.3,0.05 0.45,0.25 l 0.15,0.45 -0.2,0.45 -2.9,2.55 4.9,-0.15 4.1,-3.5 Q 37.95,18 38.25,18 l 0.4,0.2 q 0.4,0.55 -0.05,0.95" style="fill:#fff;fill-rule:evenodd;stroke:none"/></g></svg>